<?xml version="1.0" standalone="no"?>
<!DOCTYPE svg PUBLIC "-//W3C//DTD SVG 20010904//EN"
 "http://www.w3.org/TR/2001/REC-SVG-20010904/DTD/svg10.dtd">
<svg version="1.0" xmlns="http://www.w3.org/2000/svg"
 width="202.080509pt" height="38.160000pt" viewBox="0 0 202.080509 38.160000"
 preserveAspectRatio="xMidYMid meet">
<metadata>
Created by Potrace Professional 1.1m
</metadata>
<g transform="translate(-52.439386,121.080000) rotate(-360.00) scale(0.011429,-0.011429)"
fill="#000000" stroke="none">
<path d="M5181 10569 c-26 -27 -31 -44 -19 -74 7 -17 56 -47 77 -47 20 0 64
50 64 73 0 28 -46 74 -74 74 -12 0 -34 -12 -48 -26z"/>
<path d="M7273 10554 c-23 -25 -22 -78 2 -100 42 -38 117 -5 117 51 0 58 -81
91 -119 49z"/>
<path d="M4776 10489 c-9 -5 -22 -23 -29 -39 -35 -84 89 -157 141 -83 37 53 0
133 -61 133 -19 0 -41 -5 -51 -11z"/>
<path d="M7741 10439 c-46 -7 -78 -73 -59 -122 10 -26 63 -49 93 -42 53 14 84
82 58 130 -12 22 -58 40 -92 34z"/>
<path d="M7008 10359 c-36 -16 -46 -34 -46 -81 0 -36 40 -82 73 -82 30 0 80
27 88 47 18 48 -5 105 -49 120 -17 6 -32 11 -33 11 0 -1 -15 -7 -33 -15z"/>
<path d="M5457 10343 c-53 -42 -45 -114 17 -144 31 -14 40 -15 66 -2 61 29 72
99 23 145 -29 27 -72 27 -106 1z"/>
<path d="M5066 10223 c-107 -48 -119 -195 -20 -242 43 -21 81 -21 120 -1 102
53 98 199 -6 243 -43 18 -53 18 -94 0z"/>
<path d="M7386 10196 c-42 -17 -78 -72 -78 -119 0 -122 133 -184 222 -103 44
38 53 115 20 167 -33 53 -108 78 -164 55z"/>
<path d="M6658 10125 c-136 -71 -79 -267 72 -251 111 11 153 145 71 224 -43
42 -95 52 -143 27z"/>
<path d="M5765 10104 c-68 -35 -93 -124 -53 -190 60 -98 211 -72 242 41 10 36
8 49 -11 88 -35 73 -106 97 -178 61z"/>
<path d="M4627 10029 c-28 -31 -20 -86 16 -106 62 -34 126 30 92 92 -21 37
-81 45 -108 14z"/>
<path d="M7812 9994 c-11 -13 -21 -32 -21 -42 0 -26 46 -71 72 -71 57 0 89 79
48 120 -24 23 -73 20 -99 -7z"/>
<path d="M8894 8935 l0 -987 217 3 218 3 6 420 5 420 30 52 c38 64 111 136
168 165 45 23 163 37 210 26 41 -11 92 -59 116 -112 21 -45 22 -66 25 -512 l3
-464 221 0 221 0 -5 485 c-4 454 -5 491 -26 566 -75 271 -258 419 -519 419
-108 0 -191 -24 -275 -78 -51 -33 -133 -115 -161 -159 -10 -16 -12 61 -13 360
l0 381 -221 0 -220 0 0 -988z"/>
<path d="M14043 9909 c-2 -7 -3 -450 -2 -984 l3 -971 218 -3 218 -3 0 987 0
988 -216 0 c-163 0 -217 -4 -221 -14z"/>
<path d="M15908 8936 l0 -987 220 0 221 0 0 417 0 417 32 57 c70 121 174 192
295 199 103 6 155 -22 194 -102 l30 -59 3 -465 3 -464 221 0 221 0 -5 485 c-3
455 -5 491 -26 566 -59 216 -181 347 -374 403 -46 13 -90 17 -169 14 -101 -4
-113 -7 -196 -48 -84 -42 -176 -121 -216 -187 -10 -16 -12 61 -13 360 l0 381
-221 0 -220 0 0 -987z"/>
<path d="M17616 8938 l3 -984 215 -3 216 -3 0 987 0 988 -218 0 -218 0 2 -985z"/>
<path d="M18344 9739 l0 -184 220 0 221 0 0 184 0 184 -221 0 -220 0 0 -184z"/>
<path d="M20772 8938 l2 -984 218 -3 218 -3 0 232 0 232 50 52 50 51 236 -283
236 -283 244 0 c135 0 244 3 244 7 0 5 -153 193 -341 418 -187 225 -341 416
-341 423 0 8 58 74 129 147 163 169 349 363 395 414 l37 40 -262 0 -263 0
-197 -216 c-108 -118 -202 -215 -207 -215 -6 0 -10 183 -10 478 l0 478 -221 0
-220 0 3 -985z"/>
<path d="M5376 9878 c-53 -36 -76 -74 -82 -134 -10 -107 51 -179 157 -187 99
-7 168 41 188 133 10 45 -4 112 -31 145 -56 68 -165 88 -232 43z"/>
<path d="M6987 9870 c-56 -28 -93 -91 -92 -158 3 -151 166 -228 281 -134 71
59 87 138 45 219 -45 84 -147 116 -234 73z"/>
<path d="M6212 9807 c-36 -11 -86 -57 -107 -97 -23 -44 -19 -125 9 -166 37
-54 74 -76 136 -80 146 -11 235 138 160 266 -15 25 -40 52 -57 61 -40 21 -104
28 -141 16z"/>
<path d="M4835 9759 c-35 -38 -34 -80 3 -114 75 -70 183 14 131 103 -16 27
-27 33 -63 36 -37 3 -49 -2 -71 -25z"/>
<path d="M7563 9739 c-44 -32 -36 -127 13 -146 49 -19 95 -4 116 38 32 60 -6
124 -74 124 -18 0 -42 -8 -55 -16z"/>
<path d="M14917 9737 c-4 -4 -7 -82 -7 -173 l0 -166 -100 0 -99 0 0 -179 0
-178 99 0 100 0 0 -271 c0 -452 21 -592 104 -702 79 -105 237 -151 447 -130
58 5 127 16 153 24 l47 14 3 182 3 181 -35 -6 c-102 -19 -181 -18 -218 1 -58
30 -62 54 -62 399 l-1 308 158 0 157 0 0 178 0 179 -157 0 -158 0 0 173 0 173
-214 0 c-117 0 -216 -3 -220 -7z"/>
<path d="M6629 9565 c-116 -23 -193 -113 -192 -228 1 -223 296 -304 414 -114
28 46 32 62 32 128 0 68 -4 81 -32 121 -31 44 -97 86 -152 96 -14 3 -46 1 -70
-3z"/>
<path d="M5796 9545 c-189 -38 -248 -268 -101 -397 103 -90 270 -61 340 58 54
93 32 221 -50 290 -27 23 -126 62 -146 58 -4 -1 -23 -5 -43 -9z"/>
<path d="M5117 9487 c-67 -29 -95 -120 -57 -181 41 -66 110 -86 176 -52 90 47
97 176 12 227 -40 25 -84 27 -131 6z"/>
<path d="M7271 9477 c-101 -45 -103 -176 -2 -237 40 -25 72 -26 112 -5 50 25
74 65 74 121 0 58 -27 99 -80 122 -43 17 -63 17 -104 -1z"/>
<path d="M11220 9418 c-252 -39 -482 -198 -586 -404 -167 -329 -63 -747 233
-944 155 -103 296 -145 489 -144 194 0 348 40 467 120 61 41 105 82 104 96 -1
6 -53 60 -115 120 l-113 109 -67 -27 c-98 -39 -185 -53 -295 -47 -101 6 -153
22 -220 68 -41 28 -117 136 -107 152 3 5 233 9 510 9 l505 0 -5 171 c-4 151
-8 180 -33 254 -64 186 -174 310 -346 393 -146 71 -285 95 -421 74z m201 -384
c28 -9 71 -31 96 -48 44 -31 107 -114 107 -142 0 -11 -62 -13 -305 -13 -167 0
-304 2 -304 5 0 19 46 90 81 124 83 80 217 111 325 74z"/>
<path d="M12852 9418 c-150 -18 -337 -112 -434 -219 -142 -158 -207 -371 -184
-611 19 -211 102 -377 246 -497 218 -179 539 -218 740 -90 29 19 62 46 73 60
l21 27 0 -70 0 -69 221 0 220 0 0 724 0 725 -220 0 -221 0 0 -65 0 -64 -42 38
c-98 89 -255 130 -420 111z m299 -411 c130 -67 193 -194 181 -368 -10 -144
-74 -246 -187 -296 -59 -27 -73 -29 -160 -25 -116 6 -181 34 -247 109 -72 82
-107 248 -75 362 30 108 120 201 230 236 74 23 193 15 258 -18z"/>
<path d="M19819 9404 c-110 -35 -215 -110 -280 -200 l-30 -41 0 117 0 118
-220 0 -221 0 0 -725 0 -724 221 0 220 0 0 417 0 417 32 57 c85 147 229 223
372 196 49 -9 103 -58 128 -114 18 -40 19 -84 22 -509 l4 -465 217 3 217 3 0
472 c0 420 -2 482 -19 554 -52 222 -187 371 -382 422 -76 20 -222 21 -281 2z"/>
<path d="M18344 8673 l0 -725 217 3 218 3 3 722 3 722 -221 0 -220 0 0 -725z"/>
<path d="M6184 9161 c-60 -19 -130 -78 -160 -135 -17 -32 -23 -62 -23 -117 0
-63 4 -82 32 -131 73 -129 233 -182 358 -117 47 24 99 77 122 123 44 86 28
214 -34 290 -64 77 -200 118 -295 87z"/>
<path d="M5423 9057 c-63 -28 -110 -99 -110 -165 0 -40 34 -106 69 -134 142
-112 338 34 273 203 -20 53 -39 73 -93 95 -47 19 -97 20 -139 1z"/>
<path d="M6914 9057 c-151 -67 -124 -297 40 -336 37 -8 107 10 145 38 64 48
83 163 38 230 -45 68 -150 100 -223 68z"/>
<path d="M5740 8742 c-144 -39 -212 -225 -125 -345 67 -93 204 -123 301 -66
91 53 133 175 96 274 -23 60 -96 125 -158 140 -55 14 -50 14 -114 -3z"/>
<path d="M6557 8657 c-93 -47 -144 -151 -120 -247 23 -97 124 -178 221 -178
44 0 116 29 149 61 54 51 73 102 69 181 -5 92 -38 144 -115 182 -72 36 -135
36 -204 1z"/>
<path d="M5102 8603 c-112 -70 -63 -245 69 -245 77 0 132 53 131 128 0 99
-118 168 -200 117z"/>
<path d="M7259 8579 c-48 -29 -66 -62 -66 -118 0 -73 38 -114 113 -121 63 -6
96 10 128 63 26 43 26 88 0 130 -38 64 -114 84 -175 46z"/>
<path d="M6126 8301 c-41 -18 -75 -60 -89 -113 -20 -75 13 -157 80 -198 30
-19 49 -22 99 -18 77 5 127 40 153 107 45 120 -33 238 -157 237 -30 -1 -68 -7
-86 -15z"/>
<path d="M5394 8291 c-83 -31 -117 -85 -110 -175 7 -109 84 -175 190 -165 90
9 145 68 152 166 4 55 1 68 -23 104 -46 69 -132 98 -209 70z"/>
<path d="M6987 8275 c-133 -60 -142 -251 -14 -316 76 -39 157 -22 217 45 77
89 46 221 -65 271 -54 25 -84 25 -138 0z"/>
<path d="M4824 8217 c-41 -42 -33 -101 17 -127 42 -22 77 -19 101 8 30 34 36
55 23 92 -20 58 -95 72 -141 27z"/>
<path d="M7549 8201 c-37 -36 -39 -71 -9 -109 16 -22 31 -28 62 -28 49 0 82
26 90 70 6 29 2 39 -25 66 -41 41 -78 42 -118 1z"/>
<path d="M5717 7956 c-43 -44 -55 -95 -33 -147 42 -99 182 -108 238 -15 54 89
-14 196 -124 196 -38 0 -52 -6 -81 -34z"/>
<path d="M6662 7957 c-52 -13 -91 -62 -97 -122 -5 -48 -2 -55 30 -91 63 -68
162 -60 209 19 34 55 22 135 -25 174 -24 20 -81 30 -117 20z"/>
<path d="M4616 7937 c-47 -37 -32 -97 28 -118 20 -7 59 8 73 29 15 22 8 69
-13 90 -27 27 -53 27 -88 -1z"/>
<path d="M7798 7908 c-23 -25 -22 -78 2 -100 42 -37 117 -3 117 53 0 56 -82
88 -119 47z"/>
<path d="M5022 7875 c-99 -60 -78 -205 36 -242 49 -16 91 -4 128 37 43 50 50
90 22 146 -36 75 -117 101 -186 59z"/>
<path d="M7360 7866 c-62 -33 -91 -119 -60 -180 8 -14 30 -37 50 -50 41 -28
96 -26 143 5 83 54 73 182 -17 229 -40 21 -71 20 -116 -4z"/>
<path d="M5463 7658 c-30 -6 -66 -52 -66 -84 0 -15 14 -40 31 -57 17 -17 42
-30 56 -30 58 0 108 76 81 125 -9 18 -65 56 -76 52 -1 -1 -13 -4 -26 -6z"/>
<path d="M6983 7620 c-15 -7 -33 -27 -41 -43 -29 -61 39 -137 102 -115 70 24
85 124 23 156 -37 19 -50 19 -84 2z"/>
<path d="M7676 7518 c-31 -30 -28 -89 4 -121 63 -63 166 6 132 89 -21 52 -98
70 -136 32z"/>
<path d="M4740 7503 c-73 -74 27 -186 106 -119 23 20 30 35 30 66 0 73 -83
105 -136 53z"/>
<path d="M5152 7383 c-40 -44 -10 -117 49 -117 58 0 88 64 54 113 -21 30 -78
32 -103 4z"/>
<path d="M7252 7370 c-51 -40 -25 -114 40 -114 43 0 69 23 68 61 0 34 -8 47
-38 63 -31 16 -38 15 -70 -10z"/>
</g>
</svg>
